<svg width="24" height="25" viewBox="0 0 24 25" fill="none" xmlns="http://www.w3.org/2000/svg">
<g id="envelope" clip-path="url(#clip0_35_224)">
<path id="Vector" d="M23.954 5.61096L15.536 14.029C14.5974 14.9652 13.3257 15.491 12 15.491C10.6743 15.491 9.40263 14.9652 8.464 14.029L0.046 5.61096C0.032 5.76896 0 5.91196 0 6.06896V18.069C0.00158786 19.3946 0.528882 20.6654 1.46622 21.6027C2.40356 22.5401 3.67441 23.0674 5 23.069H19C20.3256 23.0674 21.5964 22.5401 22.5338 21.6027C23.4711 20.6654 23.9984 19.3946 24 18.069V6.06896C24 5.91196 23.968 5.76896 23.954 5.61096Z" fill="white"/>
<path id="Vector_2" d="M14.122 12.615L23.256 3.47997C22.8135 2.74629 22.1895 2.13901 21.444 1.7167C20.6985 1.29439 19.8568 1.07131 19 1.06897H5.00002C4.14324 1.07131 3.30152 1.29439 2.55605 1.7167C1.81057 2.13901 1.1865 2.74629 0.744019 3.47997L9.87802 12.615C10.4416 13.1763 11.2046 13.4914 12 13.4914C12.7954 13.4914 13.5584 13.1763 14.122 12.615Z" fill="white"/>
</g>
<defs>
<clipPath id="clip0_35_224">
<rect width="24" height="24" fill="white" transform="translate(0 0.0689697)"/>
</clipPath>
</defs>
</svg>
