<svg width="24" height="25" viewBox="0 0 24 25" fill="none" xmlns="http://www.w3.org/2000/svg">
<path id="Vector" d="M12 0.0690119C8.81869 0.071923 5.76865 1.12429 3.51901 2.99524C1.26937 4.86619 0.00382062 7.40294 1.90735e-06 10.049C1.90735e-06 12.619 2.39255 16.641 7.11151 22.003C7.67329 22.6431 8.40885 23.1639 9.25831 23.5229C10.1078 23.8819 11.0472 24.069 12 24.069C12.9528 24.069 13.8922 23.8819 14.7417 23.5229C15.5912 23.1639 16.3267 22.6431 16.8885 22.003C21.6075 16.641 24 12.619 24 10.049C23.9962 7.40294 22.7306 4.86619 20.481 2.99524C18.2313 1.12429 15.1813 0.071923 12 0.0690119ZM12 14.027C11.0488 14.027 10.119 13.7924 9.32819 13.3529C8.53733 12.9133 7.92093 12.2886 7.55694 11.5577C7.19295 10.8268 7.09771 10.0226 7.28327 9.24664C7.46883 8.47071 7.92686 7.75798 8.59943 7.19857C9.272 6.63916 10.1289 6.2582 11.0618 6.10386C11.9947 5.94952 12.9616 6.02873 13.8404 6.33148C14.7191 6.63423 15.4702 7.14692 15.9987 7.80472C16.5271 8.46251 16.8091 9.23587 16.8091 10.027C16.8091 11.0879 16.3025 12.1053 15.4006 12.8554C14.4987 13.6056 13.2755 14.027 12 14.027Z" fill="white"/>
</svg>
