<svg width="56" height="48" viewBox="0 0 56 48" fill="none" xmlns="http://www.w3.org/2000/svg">
<g id="Frame 33">
<g clip-path="url(#clip0_69_121)">
<g id="path14" filter="url(#filter0_d_69_121)">
<path d="M27.9999 1.19985C24.9121 1.19985 22.3999 4.42987 22.3999 8.39985C22.3999 12.3698 24.9121 15.5999 27.9999 15.5999C31.0877 15.5999 33.5999 12.3698 33.5999 8.39985C33.5999 4.42987 31.0877 1.19985 27.9999 1.19985ZM27.9999 4.69105C29.5929 4.69105 30.8845 6.35166 30.8845 8.39985C30.8845 10.448 29.5929 12.1087 27.9999 12.1087C26.4069 12.1087 25.1153 10.448 25.1153 8.39985C25.1153 6.35166 26.4069 4.69105 27.9999 4.69105Z" fill="#D8B25E"/>
</g>
<g id="path16" filter="url(#filter1_d_69_121)">
<path d="M15.5159 10.1403C15.0161 11.4217 13.9809 12.2564 12.8192 12.0878C11.5036 11.8973 10.4629 10.3804 10.402 8.57665C10.3302 6.44876 11.5728 4.69289 13.1159 4.69289C13.9278 4.69289 14.6568 5.17948 15.1546 5.9515C15.4962 6.48166 16.0348 6.68513 16.5179 6.4326C16.5598 6.41066 16.6016 6.38873 16.6435 6.3668C17.4178 5.96188 17.6825 4.63055 17.148 3.76531C16.0559 1.99674 14.3521 0.953714 12.4881 1.24982C10.0769 1.63251 8.14134 4.28913 7.87324 7.5824C7.52056 11.9155 10.0086 15.5999 13.1159 15.5999C15.1332 15.5999 16.89 14.0457 17.776 11.7678C18.2156 10.637 17.5927 9.27392 16.6549 9.26411C16.6456 9.26382 16.6365 9.26382 16.6272 9.26382C16.1676 9.25891 15.732 9.58648 15.5159 10.1403Z" fill="#694582"/>
</g>
<g id="path18" filter="url(#filter2_d_69_121)">
<path d="M20.3316 33.3561L14.9312 40.2974C14.8666 40.3802 14.796 40.4528 14.7215 40.5151C14.6952 40.5384 14.6689 40.5565 14.6429 40.5748C14.6286 40.5877 14.6126 40.5979 14.5984 40.6057C14.5743 40.6238 14.55 40.6367 14.5259 40.65C14.5057 40.6629 14.4856 40.673 14.4634 40.6835C14.4553 40.6888 14.4453 40.6914 14.4372 40.6964C14.4372 40.6964 14.429 40.699 14.417 40.7043C14.4109 40.7068 14.4049 40.7094 14.3968 40.7119C14.3767 40.7223 14.3546 40.7302 14.3342 40.7353C14.3263 40.7378 14.3162 40.7406 14.3061 40.7432C14.2919 40.7482 14.2759 40.7508 14.2597 40.7561C14.2233 40.7691 14.1872 40.777 14.1508 40.7795C14.1306 40.782 14.1105 40.7846 14.0903 40.7871C14.0601 40.7899 14.0318 40.7924 14.0016 40.7924C13.9996 40.7924 13.9996 40.7924 13.9974 40.7924C13.8222 40.7924 13.6447 40.7457 13.4813 40.6525C13.3321 40.5719 13.1929 40.4528 13.072 40.2974L10.0551 36.4225L7.66966 33.3561C7.15743 32.6952 7.15743 31.6248 7.66966 30.9665L13.072 24.0227C13.3281 23.6935 13.6649 23.5276 14.0016 23.5276C14.3383 23.5276 14.6731 23.6935 14.9312 24.0227L20.3316 30.9665C20.7932 31.5573 20.8396 32.4801 20.4687 33.141C20.4304 33.2162 20.3839 33.2888 20.3316 33.3561ZM23.9008 26.3786L18.5004 19.4348C17.2987 17.8902 15.6996 17.04 14.0016 17.04C12.3017 17.04 10.7045 17.8902 9.50257 19.4348L4.10023 26.3786C1.61991 29.5669 1.61991 34.7557 4.10023 37.9437L7.36512 42.1377L9.50257 44.885C10.7045 46.4299 12.3017 47.28 14.0016 47.28C14.0884 47.28 14.1729 47.2775 14.2577 47.2721C15.8608 47.1919 17.3592 46.3521 18.5004 44.885L23.9008 37.9437C24.1085 37.6796 24.296 37.3994 24.4673 37.1065C26.3629 33.9056 26.1734 29.3025 23.9008 26.3786Z" fill="#694582"/>
</g>
<g id="g20" filter="url(#filter3_d_69_121)">
<g id="Clip path group">
<mask id="mask0_69_121" style="mask-type:luminance" maskUnits="userSpaceOnUse" x="7" y="33" width="18" height="15">
<g id="clipPath26">
<path id="path24" d="M24.4495 37.3221C24.2831 37.6088 24.1009 37.883 23.8992 38.1416L18.6544 44.9357C17.546 46.3718 16.0908 47.1938 14.5339 47.2723C14.4516 47.2775 14.3694 47.28 14.2852 47.28C12.6342 47.28 11.083 46.4479 9.91573 44.9357L7.83984 42.2466C8.53117 40.5415 9.41059 38.6543 10.4524 36.6526L13.3823 40.4454C13.4998 40.5975 13.6349 40.7141 13.7798 40.7929C13.9386 40.8842 14.1109 40.9299 14.2811 40.9299C14.2833 40.9299 14.2833 40.9299 14.2852 40.9299C14.3145 40.9299 14.342 40.9274 14.3713 40.9247C14.3909 40.9222 14.4105 40.9197 14.4301 40.9172C14.4673 40.9095 14.5024 40.9021 14.5358 40.8944C14.5516 40.8891 14.5671 40.8866 14.5809 40.8817C14.5907 40.8792 14.6005 40.8765 14.6082 40.874C14.628 40.869 14.6494 40.8613 14.669 40.8511C14.6769 40.8486 14.6826 40.8461 14.6886 40.8436C14.7003 40.8384 14.7082 40.8359 14.7082 40.8359C14.716 40.831 14.7258 40.8285 14.7337 40.8233C14.7552 40.8131 14.7748 40.8031 14.7944 40.7905C14.8178 40.7775 14.8414 40.7648 14.8648 40.7472C14.8786 40.7395 14.8941 40.7295 14.908 40.7169C14.9333 40.6989 14.9588 40.6813 14.9844 40.6584C15.0567 40.5975 15.1252 40.5264 15.188 40.4454L20.4328 33.6512C20.4837 33.5853 20.5288 33.5142 20.566 33.4406L21.6137 33.6512L24.4495 37.3221Z" fill="white"/>
</g>
</mask>
<g mask="url(#mask0_69_121)">
<g id="g22">
<g id="path36">
<path d="M24.4495 37.5328C24.2831 37.8194 24.1009 38.0937 23.8992 38.3522L18.6544 45.1464C17.546 46.5824 16.0908 47.4044 14.5339 47.4829C14.4516 47.4882 14.3694 47.4907 14.2852 47.4907C12.6342 47.4907 10.6872 46.6322 9.51984 45.1201L7.83984 42.9601C8.53116 41.255 9.41059 38.8649 10.4524 36.8632L11.7598 38.6401L13.3142 40.8001C13.4316 40.9522 13.5668 41.0688 13.7117 41.1476C13.8704 41.2389 14.0428 41.2846 14.213 41.2846H14.217C14.2464 41.2846 14.2738 41.2822 14.3032 41.2794C14.3228 41.2769 14.3423 41.2744 14.3619 41.272C14.3992 41.2642 14.4343 41.2568 14.4677 41.2491C14.4834 41.2439 14.499 41.2414 14.5128 41.2364C14.5226 41.2339 14.5324 41.2312 14.54 41.2287C14.5598 41.2237 14.5813 41.216 14.6009 41.2058C14.6087 41.2033 14.6145 41.2008 14.6205 41.1984C14.6322 41.1931 14.64 41.1907 14.64 41.1907C14.6479 41.1857 14.6577 41.1832 14.6656 41.178C14.6871 41.1678 14.7066 41.1579 14.7262 41.1452C14.7496 41.1322 14.7732 41.1195 14.7966 41.1019C14.8105 41.0942 14.826 41.0843 14.8398 41.0716C14.8651 41.0537 14.8907 41.036 14.9162 41.0131C14.9886 40.9522 15.0571 40.8811 15.1198 40.8001L17.3598 37.2001L20.4328 33.8618C20.4837 33.796 20.5288 33.7248 20.566 33.6512L21.6137 33.8618L24.4495 37.5328Z" fill="url(#paint0_linear_69_121)"/>
<path d="M24.4495 37.5328C24.2831 37.8194 24.1009 38.0937 23.8992 38.3522L18.6544 45.1464C17.546 46.5824 16.0908 47.4044 14.5339 47.4829C14.4516 47.4882 14.3694 47.4907 14.2852 47.4907C12.6342 47.4907 10.6872 46.6322 9.51984 45.1201L7.83984 42.9601C8.53116 41.255 9.41059 38.8649 10.4524 36.8632L11.7598 38.6401L13.3142 40.8001C13.4316 40.9522 13.5668 41.0688 13.7117 41.1476C13.8704 41.2389 14.0428 41.2846 14.213 41.2846H14.217C14.2464 41.2846 14.2738 41.2822 14.3032 41.2794C14.3228 41.2769 14.3423 41.2744 14.3619 41.272C14.3992 41.2642 14.4343 41.2568 14.4677 41.2491C14.4834 41.2439 14.499 41.2414 14.5128 41.2364C14.5226 41.2339 14.5324 41.2312 14.54 41.2287C14.5598 41.2237 14.5813 41.216 14.6009 41.2058C14.6087 41.2033 14.6145 41.2008 14.6205 41.1984C14.6322 41.1931 14.64 41.1907 14.64 41.1907C14.6479 41.1857 14.6577 41.1832 14.6656 41.178C14.6871 41.1678 14.7066 41.1579 14.7262 41.1452C14.7496 41.1322 14.7732 41.1195 14.7966 41.1019C14.8105 41.0942 14.826 41.0843 14.8398 41.0716C14.8651 41.0537 14.8907 41.036 14.9162 41.0131C14.9886 40.9522 15.0571 40.8811 15.1198 40.8001L17.3598 37.2001L20.4328 33.8618C20.4837 33.796 20.5288 33.7248 20.566 33.6512L21.6137 33.8618L24.4495 37.5328Z" fill="url(#paint1_linear_69_121)"/>
</g>
</g>
</g>
</g>
</g>
<g id="path38" filter="url(#filter4_d_69_121)">
<path d="M38.3711 26.3765L32.7128 19.4358C31.4539 17.8913 29.7812 17.04 28.0007 17.04C26.2202 17.04 24.5473 17.8913 23.2886 19.4358L20.7335 22.5733L23.8329 26.3765C24.0504 26.6407 24.2471 26.9203 24.4272 27.2123L27.0275 24.0241C27.2967 23.6938 27.6487 23.5288 28.0007 23.5288C28.3525 23.5288 28.7066 23.6938 28.9758 24.0241L34.632 30.9648C35.1703 31.6254 35.1703 32.6949 34.632 33.3555L28.9758 40.2962C28.7066 40.6265 28.3525 40.7916 28.0007 40.7916C27.6487 40.7916 27.2967 40.6265 27.0275 40.2962L24.4293 37.1078C24.4272 37.1078 24.4272 37.1052 24.4272 37.1052L21.3692 33.3555C21.0918 33.0126 20.9573 32.5603 20.9697 32.1131C20.7253 31.7955 20.477 31.4779 20.2347 31.1681C20.1933 31.0969 20.1456 31.0284 20.094 30.9648L19.3941 30.1088C19.3693 30.0781 19.3445 30.0451 19.3195 30.0147C18.0422 28.4192 17.038 27.2123 17.038 27.2123H17.0359C16.1561 28.6276 15.6799 30.3501 15.6799 32.1588C15.6799 33.9703 16.1561 35.6902 17.038 37.1052C17.2181 37.3975 17.4169 37.6769 17.6321 37.9413L21.8619 43.1313L23.2886 44.8845C24.5473 46.4291 26.2202 47.28 28.0007 47.28C29.7812 47.28 31.4539 46.4291 32.7128 44.8845L38.3711 37.9413C40.9695 34.7528 40.9695 29.565 38.3711 26.3765Z" fill="#D8B25E"/>
</g>
<g id="path40" filter="url(#filter5_d_69_121)">
<path d="M51.8998 26.3753L46.4997 19.4374C45.8565 18.6104 45.1002 17.9808 44.2734 17.579C43.5577 17.2239 42.7893 17.04 42.0009 17.04C40.301 17.04 38.7041 17.8927 37.5023 19.4374L35.0019 22.6485L37.9014 26.3753C38.1293 26.6681 38.337 26.9792 38.5225 27.3005L41.0713 24.0246C41.3274 23.6929 41.6641 23.5296 42.0009 23.5296C42.3356 23.5296 42.6723 23.6929 42.9306 24.0246L48.3306 30.9653C48.8428 31.6262 48.8428 32.6939 48.3306 33.3548L42.9306 40.2954C42.6723 40.6246 42.3356 40.7905 42.0009 40.7905C41.6641 40.7905 41.3274 40.6246 41.0713 40.2954L38.7828 37.3563C38.7828 37.3538 38.7806 37.3538 38.7806 37.3512L38.5205 37.0195L35.6692 33.3548C35.4354 33.0515 35.3064 32.6629 35.2882 32.2715C35.0179 31.906 34.7458 31.5456 34.4796 31.1959C34.4393 31.1156 34.3889 31.0377 34.3324 30.9653L32.9712 29.2184L32.7171 28.8892L32.4792 28.5834C32.0276 27.9977 31.6909 27.5675 31.5516 27.3937L31.481 27.3005H31.4791C29.8257 30.1774 29.8276 34.1426 31.481 37.0195C31.6666 37.3408 31.8723 37.6491 32.1002 37.9395L35.0019 41.669L36.2158 43.2292L37.5023 44.8827C38.7041 46.4274 40.301 47.28 42.0009 47.28C43.7009 47.28 45.2978 46.4274 46.4997 44.8827L51.8998 37.9395C54.38 34.7517 54.38 29.5658 51.8998 26.3753Z" fill="#5C77B9"/>
</g>
<g id="g42" filter="url(#filter6_d_69_121)">
<g id="Clip path group_2">
<mask id="mask1_69_121" style="mask-type:luminance" maskUnits="userSpaceOnUse" x="35" y="16" width="11" height="12">
<g id="clipPath48">
<path id="path46" d="M42.2528 23.6206C41.9085 23.6206 41.5642 23.7875 41.3024 24.1264L38.6964 27.4739C38.5066 27.1456 38.2943 26.8276 38.0613 26.5284L35.0967 22.7203L37.6532 19.439C38.8821 17.8605 40.5148 16.9893 42.2528 16.9893C43.059 16.9893 43.8446 17.1772 44.5764 17.54C47.0979 20.7154 42.2528 23.6206 42.2528 23.6206Z" fill="white"/>
</g>
</mask>
<g mask="url(#mask1_69_121)">
<g id="g44">
<path id="path58" d="M42.2528 23.6206C41.9085 23.6206 41.5642 23.7875 41.3024 24.1264L38.6964 27.4739C38.5066 27.1456 38.2943 26.8276 38.0613 26.5284L35.0967 22.7203L37.6532 19.439C38.8821 17.8605 40.5148 16.9893 42.2528 16.9893C43.059 16.9893 43.8446 17.1772 44.5764 17.54C47.0979 20.7154 42.2528 23.6206 42.2528 23.6206Z" fill="url(#paint2_linear_69_121)"/>
</g>
</g>
</g>
</g>
<g id="path60" filter="url(#filter7_d_69_121)">
<path d="M39.631 6.65958C40.1864 5.37819 41.3366 4.54357 42.6273 4.71182C44.0891 4.90258 45.2454 6.41918 45.3131 8.22321C45.3929 10.3511 44.0122 12.1066 42.2977 12.1066C41.3956 12.1066 40.5855 11.62 40.0327 10.848C39.6528 10.3179 39.0545 10.1144 38.5176 10.3672C38.4711 10.3892 38.4246 10.4111 38.3781 10.4327C37.5178 10.8376 37.2236 12.1689 37.8175 13.0345C39.031 14.803 40.9241 15.846 42.9952 15.5499C45.6744 15.1669 47.8252 12.5104 48.1229 9.21744C48.5147 4.88412 45.7503 1.19985 42.2977 1.19985C40.0562 1.19985 38.1044 2.75425 37.1198 5.03217C36.6314 6.16261 37.3237 7.52567 38.3656 7.53577C38.3757 7.53577 38.3858 7.53577 38.3962 7.53606C38.9069 7.54096 39.3909 7.2134 39.631 6.65958Z" fill="#5C77B9"/>
</g>
</g>
</g>
<defs>
<filter id="filter0_d_69_121" x="18.3999" y="1.19986" width="19.2" height="22.4" filterUnits="userSpaceOnUse" color-interpolation-filters="sRGB">
<feFlood flood-opacity="0" result="BackgroundImageFix"/>
<feColorMatrix in="SourceAlpha" type="matrix" values="0 0 0 0 0 0 0 0 0 0 0 0 0 0 0 0 0 0 127 0" result="hardAlpha"/>
<feOffset dy="4"/>
<feGaussianBlur stdDeviation="2"/>
<feComposite in2="hardAlpha" operator="out"/>
<feColorMatrix type="matrix" values="0 0 0 0 0 0 0 0 0 0 0 0 0 0 0 0 0 0 0.25 0"/>
<feBlend mode="normal" in2="BackgroundImageFix" result="effect1_dropShadow_69_121"/>
<feBlend mode="normal" in="SourceGraphic" in2="effect1_dropShadow_69_121" result="shape"/>
</filter>
<filter id="filter1_d_69_121" x="3.83984" y="1.19986" width="18.0801" height="22.4" filterUnits="userSpaceOnUse" color-interpolation-filters="sRGB">
<feFlood flood-opacity="0" result="BackgroundImageFix"/>
<feColorMatrix in="SourceAlpha" type="matrix" values="0 0 0 0 0 0 0 0 0 0 0 0 0 0 0 0 0 0 127 0" result="hardAlpha"/>
<feOffset dy="4"/>
<feGaussianBlur stdDeviation="2"/>
<feComposite in2="hardAlpha" operator="out"/>
<feColorMatrix type="matrix" values="0 0 0 0 0 0 0 0 0 0 0 0 0 0 0 0 0 0 0.25 0"/>
<feBlend mode="normal" in2="BackgroundImageFix" result="effect1_dropShadow_69_121"/>
<feBlend mode="normal" in="SourceGraphic" in2="effect1_dropShadow_69_121" result="shape"/>
</filter>
<filter id="filter2_d_69_121" x="-1.76001" y="17.04" width="31.52" height="38.24" filterUnits="userSpaceOnUse" color-interpolation-filters="sRGB">
<feFlood flood-opacity="0" result="BackgroundImageFix"/>
<feColorMatrix in="SourceAlpha" type="matrix" values="0 0 0 0 0 0 0 0 0 0 0 0 0 0 0 0 0 0 127 0" result="hardAlpha"/>
<feOffset dy="4"/>
<feGaussianBlur stdDeviation="2"/>
<feComposite in2="hardAlpha" operator="out"/>
<feColorMatrix type="matrix" values="0 0 0 0 0 0 0 0 0 0 0 0 0 0 0 0 0 0 0.25 0"/>
<feBlend mode="normal" in2="BackgroundImageFix" result="effect1_dropShadow_69_121"/>
<feBlend mode="normal" in="SourceGraphic" in2="effect1_dropShadow_69_121" result="shape"/>
</filter>
<filter id="filter3_d_69_121" x="3.83984" y="33.6512" width="24.6096" height="21.6288" filterUnits="userSpaceOnUse" color-interpolation-filters="sRGB">
<feFlood flood-opacity="0" result="BackgroundImageFix"/>
<feColorMatrix in="SourceAlpha" type="matrix" values="0 0 0 0 0 0 0 0 0 0 0 0 0 0 0 0 0 0 127 0" result="hardAlpha"/>
<feOffset dy="4"/>
<feGaussianBlur stdDeviation="2"/>
<feComposite in2="hardAlpha" operator="out"/>
<feColorMatrix type="matrix" values="0 0 0 0 0 0 0 0 0 0 0 0 0 0 0 0 0 0 0.25 0"/>
<feBlend mode="normal" in2="BackgroundImageFix" result="effect1_dropShadow_69_121"/>
<feBlend mode="normal" in="SourceGraphic" in2="effect1_dropShadow_69_121" result="shape"/>
</filter>
<filter id="filter4_d_69_121" x="11.6799" y="17.04" width="32.6399" height="38.24" filterUnits="userSpaceOnUse" color-interpolation-filters="sRGB">
<feFlood flood-opacity="0" result="BackgroundImageFix"/>
<feColorMatrix in="SourceAlpha" type="matrix" values="0 0 0 0 0 0 0 0 0 0 0 0 0 0 0 0 0 0 127 0" result="hardAlpha"/>
<feOffset dy="4"/>
<feGaussianBlur stdDeviation="2"/>
<feComposite in2="hardAlpha" operator="out"/>
<feColorMatrix type="matrix" values="0 0 0 0 0 0 0 0 0 0 0 0 0 0 0 0 0 0 0.25 0"/>
<feBlend mode="normal" in2="BackgroundImageFix" result="effect1_dropShadow_69_121"/>
<feBlend mode="normal" in="SourceGraphic" in2="effect1_dropShadow_69_121" result="shape"/>
</filter>
<filter id="filter5_d_69_121" x="26.24" y="17.04" width="31.52" height="38.24" filterUnits="userSpaceOnUse" color-interpolation-filters="sRGB">
<feFlood flood-opacity="0" result="BackgroundImageFix"/>
<feColorMatrix in="SourceAlpha" type="matrix" values="0 0 0 0 0 0 0 0 0 0 0 0 0 0 0 0 0 0 127 0" result="hardAlpha"/>
<feOffset dy="4"/>
<feGaussianBlur stdDeviation="2"/>
<feComposite in2="hardAlpha" operator="out"/>
<feColorMatrix type="matrix" values="0 0 0 0 0 0 0 0 0 0 0 0 0 0 0 0 0 0 0.25 0"/>
<feBlend mode="normal" in2="BackgroundImageFix" result="effect1_dropShadow_69_121"/>
<feBlend mode="normal" in="SourceGraphic" in2="effect1_dropShadow_69_121" result="shape"/>
</filter>
<filter id="filter6_d_69_121" x="31.0967" y="16.9893" width="18.207" height="18.4846" filterUnits="userSpaceOnUse" color-interpolation-filters="sRGB">
<feFlood flood-opacity="0" result="BackgroundImageFix"/>
<feColorMatrix in="SourceAlpha" type="matrix" values="0 0 0 0 0 0 0 0 0 0 0 0 0 0 0 0 0 0 127 0" result="hardAlpha"/>
<feOffset dy="4"/>
<feGaussianBlur stdDeviation="2"/>
<feComposite in2="hardAlpha" operator="out"/>
<feColorMatrix type="matrix" values="0 0 0 0 0 0 0 0 0 0 0 0 0 0 0 0 0 0 0.25 0"/>
<feBlend mode="normal" in2="BackgroundImageFix" result="effect1_dropShadow_69_121"/>
<feBlend mode="normal" in="SourceGraphic" in2="effect1_dropShadow_69_121" result="shape"/>
</filter>
<filter id="filter7_d_69_121" x="32.96" y="1.19986" width="19.2" height="22.4" filterUnits="userSpaceOnUse" color-interpolation-filters="sRGB">
<feFlood flood-opacity="0" result="BackgroundImageFix"/>
<feColorMatrix in="SourceAlpha" type="matrix" values="0 0 0 0 0 0 0 0 0 0 0 0 0 0 0 0 0 0 127 0" result="hardAlpha"/>
<feOffset dy="4"/>
<feGaussianBlur stdDeviation="2"/>
<feComposite in2="hardAlpha" operator="out"/>
<feColorMatrix type="matrix" values="0 0 0 0 0 0 0 0 0 0 0 0 0 0 0 0 0 0 0.25 0"/>
<feBlend mode="normal" in2="BackgroundImageFix" result="effect1_dropShadow_69_121"/>
<feBlend mode="normal" in="SourceGraphic" in2="effect1_dropShadow_69_121" result="shape"/>
</filter>
<linearGradient id="paint0_linear_69_121" x1="11.3312" y1="43.3451" x2="19.0873" y2="43.7772" gradientUnits="userSpaceOnUse">
<stop stop-color="#694582" stop-opacity="0.37"/>
<stop offset="0.541667" stop-color="#C39E5C"/>
</linearGradient>
<linearGradient id="paint1_linear_69_121" x1="11.3312" y1="43.3451" x2="19.0873" y2="43.7772" gradientUnits="userSpaceOnUse">
<stop stop-color="#694582" stop-opacity="0.37"/>
<stop offset="0.541667" stop-color="#C39E5C"/>
</linearGradient>
<linearGradient id="paint2_linear_69_121" x1="42.1401" y1="17.1285" x2="35.3521" y2="23.0841" gradientUnits="userSpaceOnUse">
<stop stop-color="#5C77B9"/>
<stop offset="0.583333" stop-color="#C39E5C"/>
</linearGradient>
<clipPath id="clip0_69_121">
<rect width="56" height="48" fill="white"/>
</clipPath>
</defs>
</svg>
