<svg width="24" height="24" viewBox="0 0 24 24" fill="none" xmlns="http://www.w3.org/2000/svg">
<g clip-path="url(#clip0_189_69)">
<path d="M23 10.5H1C0.447715 10.5 0 11.1716 0 12C0 12.8284 0.447715 13.5 1 13.5H23C23.5523 13.5 24 12.8284 24 12C24 11.1716 23.5523 10.5 23 10.5Z" fill="#C39E5C"/>
<path d="M23 0H1C0.447715 0 0 0.671573 0 1.5C0 2.32843 0.447715 3 1 3H23C23.5523 3 24 2.32843 24 1.5C24 0.671573 23.5523 0 23 0Z" fill="#C39E5C"/>
<path d="M23 21H1C0.447715 21 0 21.6716 0 22.5C0 23.3284 0.447715 24 1 24H23C23.5523 24 24 23.3284 24 22.5C24 21.6716 23.5523 21 23 21Z" fill="#C39E5C"/>
</g>
<defs>
<clipPath id="clip0_189_69">
<rect width="24" height="24" fill="white"/>
</clipPath>
</defs>
</svg>
