<svg width="24" height="24" viewBox="0 0 24 24" fill="none" xmlns="http://www.w3.org/2000/svg">
<g clip-path="url(#clip0_189_73)">
<path fill-rule="evenodd" clip-rule="evenodd" d="M-0.0120239 12C-0.0120239 5.36593 5.36593 -0.0120239 12 -0.0120239C18.634 -0.0120239 24.012 5.36593 24.012 12C24.012 18.634 18.634 24.012 12 24.012C5.36593 24.012 -0.0120239 18.634 -0.0120239 12ZM8.39638 11.3994C8.39638 9.74089 9.74089 8.39638 11.3994 8.39638C13.0579 8.39638 14.4024 9.74089 14.4024 11.3994C14.4024 13.0579 13.0579 14.4024 11.3994 14.4024C9.74089 14.4024 8.39638 13.0579 8.39638 11.3994ZM11.3994 5.99398C8.41407 5.99398 5.99398 8.41407 5.99398 11.3994C5.99398 14.3847 8.41407 16.8048 11.3994 16.8048C12.457 16.8048 13.4438 16.501 14.2771 15.976L15.9554 17.6542C16.4245 18.1232 17.1851 18.1232 17.6542 17.6542C18.1232 17.1851 18.1232 16.4245 17.6542 15.9554L15.976 14.2771C16.501 13.4438 16.8048 12.457 16.8048 11.3994C16.8048 8.41407 14.3847 5.99398 11.3994 5.99398Z" fill="#C39E5C"/>
</g>
<defs>
<clipPath id="clip0_189_73">
<rect width="24" height="24" fill="white"/>
</clipPath>
</defs>
</svg>
