<svg width="24" height="24" viewBox="0 0 24 24" fill="none" xmlns="http://www.w3.org/2000/svg">
<path id="Vector" d="M12 0C18.617 0 24 5.383 24 12C24 18.617 18.617 24 12 24C5.383 24 0 18.617 0 12C0 5.383 5.383 0 12 0ZM6.335 16.587L6.857 17.187C7.408 17.739 8.134 18 8.857 18C12.571 18 18 12.857 18 8.857C18 8.134 17.739 7.408 17.187 6.857L16.587 6.335C16.141 5.889 15.417 5.889 14.971 6.335L13.971 7.637C13.525 8.083 13.525 8.807 13.971 9.253L14.822 10.322C13.921 12.566 12.393 14.032 10.322 14.822L9.253 13.971C8.807 13.525 8.083 13.525 7.637 13.971L6.335 14.971C5.889 15.417 5.889 16.141 6.335 16.587Z" fill="white"/>
</svg>
